<?xml version="1.0" encoding="UTF-8"?>
<!DOCTYPE svg PUBLIC "-//W3C//DTD SVG 1.1//EN" "http://www.w3.org/Graphics/SVG/1.1/DTD/svg11.dtd">
<svg xmlns="http://www.w3.org/2000/svg" version="1.1" width="556px" height="112px" style="shape-rendering:geometricPrecision; text-rendering:geometricPrecision; image-rendering:optimizeQuality; fill-rule:evenodd; clip-rule:evenodd" xmlns:xlink="http://www.w3.org/1999/xlink">
<g><path style="opacity:0.849" fill="#fdfdfd" d="M 231.5,3.5 C 243.213,2.9721 253.88,5.9721 263.5,12.5C 266.577,15.4091 269.077,18.7424 271,22.5C 272.097,16.6939 272.931,10.8606 273.5,5C 299.167,4.33333 324.833,4.33333 350.5,5C 351.833,11.6667 351.833,18.3333 350.5,25C 324.594,25.8276 298.761,25.661 273,24.5C 272.831,29.1609 272.997,33.8276 273.5,38.5C 266.492,38.6663 259.492,38.4996 252.5,38C 251.292,33.029 248.959,28.6956 245.5,25C 240.776,22.6302 235.943,20.7969 231,19.5C 230.219,14.0833 230.385,8.74993 231.5,3.5 Z"/></g>
<g><path style="opacity:0.851" fill="#fefefe" d="M -0.5,4.5 C 6.22568,4.20493 12.8923,4.53826 19.5,5.5C 20.499,17.4815 20.8323,29.4815 20.5,41.5C 35.1705,41.6666 49.8371,41.4999 64.5,41C 65.3225,29.2425 65.8225,17.4092 66,5.5C 72.7524,4.35548 79.5857,4.18881 86.5,5C 87.4958,37.4267 87.8291,69.9267 87.5,102.5C 80.2454,102.813 73.0787,102.48 66,101.5C 65.5001,88.1708 65.3334,74.8375 65.5,61.5C 50.5,61.5 35.5,61.5 20.5,61.5C 20.5986,75.274 20.5986,88.9407 20.5,102.5C 13.5,102.5 6.5,102.5 -0.5,102.5C -0.5,69.8333 -0.5,37.1667 -0.5,4.5 Z"/></g>
<g><path style="opacity:0.8" fill="#fefefe" d="M 163.5,4.5 C 170.422,4.18783 177.256,4.52117 184,5.5C 184.826,26.4063 184.66,47.2397 183.5,68C 176.586,68.8112 169.752,68.6445 163,67.5C 162.179,46.4271 162.346,25.4271 163.5,4.5 Z"/></g>
<g><path style="opacity:0.839" fill="#fdfdfd" d="M 372.5,4.5 C 380.84,4.3336 389.173,4.50027 397.5,5C 411.246,37.0694 423.913,69.5694 435.5,102.5C 427.167,102.5 418.833,102.5 410.5,102.5C 402.319,78.4542 393.819,54.4542 385,30.5C 376.853,54.072 368.853,77.7387 361,101.5C 353.58,102.647 346.08,102.813 338.5,102C 338.043,101.586 337.709,101.086 337.5,100.5C 348.633,68.2479 360.3,36.2479 372.5,4.5 Z"/></g>
<g><path style="opacity:0.868" fill="#fdfdfd" d="M 445.5,4.5 C 461.866,4.15078 478.199,4.65078 494.5,6C 510.285,10.1363 518.285,20.4697 518.5,37C 517.944,49.2878 512.611,58.7878 502.5,65.5C 508.749,76.3333 515.249,87 522,97.5C 522.494,99.1341 522.66,100.801 522.5,102.5C 514.826,102.666 507.159,102.5 499.5,102C 493.692,91.5481 488.025,81.0481 482.5,70.5C 476.537,69.5041 470.537,69.1707 464.5,69.5C 463.572,80.3192 463.239,90.9858 463.5,101.5C 456.524,102.664 449.524,102.831 442.5,102C 441.342,85.5741 441.176,69.0741 442,52.5C 455.092,51.6764 468.258,51.1764 481.5,51C 493.49,49.8599 498.324,43.3599 496,31.5C 493.889,27.0561 490.389,24.5561 485.5,24C 471.167,23.6667 456.833,23.3333 442.5,23C 441.529,17.9283 441.195,12.7616 441.5,7.5C 443.404,7.26242 444.738,6.26242 445.5,4.5 Z"/></g>
<g><path style="opacity:0.867" fill="#fefefe" d="M 102.5,4.5 C 109.09,4.189 115.59,4.52234 122,5.5C 122.067,27.5364 122.734,49.5364 124,71.5C 128.128,79.574 134.795,83.9073 144,84.5C 144.5,90.8246 144.666,97.1579 144.5,103.5C 129.435,104.712 116.935,99.7115 107,88.5C 104.34,84.1861 102.673,79.5195 102,74.5C 101.827,53.2604 101.327,32.0938 100.5,11C 101.23,8.84604 101.897,6.67937 102.5,4.5 Z"/></g>
<g><path style="opacity:0.188" fill="#a49ff5" d="M 445.5,4.5 C 444.738,6.26242 443.404,7.26242 441.5,7.5C 441.694,5.08824 443.027,4.08824 445.5,4.5 Z"/></g>
<g><path style="opacity:0.829" fill="#fdfdfd" d="M 194.5,29.5 C 201.5,29.5 208.5,29.5 215.5,29.5C 216.02,33.5358 218.02,36.7025 221.5,39C 234.984,43.2722 248.317,47.9389 261.5,53C 271.865,59.7342 275.699,69.2342 273,81.5C 269.894,91.2725 263.394,97.7725 253.5,101C 241.923,103.895 230.256,104.229 218.5,102C 201.382,97.8862 192.882,87.0529 193,69.5C 200.086,68.3544 207.253,68.1877 214.5,69C 215.795,80.1232 222.128,85.9566 233.5,86.5C 239.106,86.131 244.273,84.4644 249,81.5C 252.184,77.1288 252.184,72.7955 249,68.5C 246.079,66.2879 242.912,64.4545 239.5,63C 227.367,60.3728 215.7,56.3728 204.5,51C 197.246,45.6592 193.913,38.4925 194.5,29.5 Z"/></g>
<g><path style="opacity:0.82" fill="#fefefe" d="M 302.5,34.5 C 309.09,34.189 315.59,34.5223 322,35.5C 322.5,57.8308 322.667,80.1642 322.5,102.5C 315.245,102.813 308.079,102.48 301,101.5C 300.833,90.5 300.667,79.5 300.5,68.5C 300.522,56.9415 301.188,45.6081 302.5,34.5 Z"/></g>
</svg>
