<svg xmlns="http://www.w3.org/2000/svg" version="1.1" viewBox="-17 166 1059 217" width="1059" height="217" xmlns:xlink="http://www.w3.org/1999/xlink">
<path fill="#0936bf" d="&#10;  M 532.77 160.55&#10;  C 532.48 145.25 533.52 130.58 537.63 115.63&#10;  Q 545.18 88.21 563.08 64.90&#10;  Q 579.48 43.53 598.98 29.66&#10;  C 603.31 26.58 609.30 23.21 613.63 20.60&#10;  Q 616.89 18.64 619.69 17.32&#10;  Q 638.49 8.39 657.99 4.49&#10;  Q 661.98 3.69 671.23 2.29&#10;  C 715.53 -4.37 762.13 10.67 794.69 40.58&#10;  C 805.99 50.96 815.04 60.21 822.79 73.02&#10;  C 831.81 87.92 838.95 102.42 843.14 118.51&#10;  C 846.69 132.13 848.80 146.59 848.21 160.75&#10;  A 1.72 1.72 0.0 0 1 846.49 162.41&#10;  L 825.92 162.41&#10;  A 1.98 1.97 88.5 0 1 823.95 160.54&#10;  Q 823.78 157.54 821.58 141.12&#10;  Q 819.97 129.15 817.76 121.93&#10;  C 810.05 96.66 795.34 74.23 775.23 57.65&#10;  Q 767.97 51.67 754.72 43.92&#10;  Q 740.95 35.86 723.43 31.66&#10;  Q 700.56 26.17 680.07 28.09&#10;  Q 666.64 29.36 655.86 32.10&#10;  C 644.30 35.04 632.71 40.16 622.22 46.14&#10;  Q 619.58 47.64 612.24 52.84&#10;  Q 590.75 68.09 578.06 89.56&#10;  Q 572.95 98.20 567.00 113.00&#10;  C 560.81 128.39 559.17 143.83 558.76 160.15&#10;  A 2.26 2.25 0.6 0 1 556.50 162.35&#10;  L 534.61 162.35&#10;  A 1.84 1.83 -0.5 0 1 532.77 160.55&#10;  Z"/>
<path fill="#ffffff" d="&#10;  M 521.53 239.43&#10;  A 1.26 1.26 0.0 0 1 520.27 240.76&#10;  L 488.09 240.76&#10;  A 1.29 1.29 0.0 0 1 486.81 239.63&#10;  C 485.56 229.97 482.32 220.61 474.13 214.91&#10;  Q 464.74 208.36 454.99 207.29&#10;  Q 450.04 206.74 447.34 206.36&#10;  A 1.25 1.24 -86.0 0 1 446.27 205.12&#10;  L 446.27 178.92&#10;  A 0.69 0.69 0.0 0 1 446.99 178.23&#10;  Q 456.78 178.55 467.58 180.13&#10;  Q 481.53 182.17 494.55 189.45&#10;  C 498.75 191.79 500.59 193.30 504.30 196.78&#10;  C 516.65 208.39 520.67 223.04 521.53 239.43&#10;  Z"/>
<path fill="#ffffff" d="&#10;  M 82.74 250.54&#10;  Q 98.06 250.54 128.14 250.55&#10;  A 1.12 1.11 -89.9 0 0 129.26 249.43&#10;  L 129.26 182.10&#10;  A 1.26 1.26 0.0 0 1 130.52 180.84&#10;  L 163.56 180.84&#10;  A 0.96 0.96 0.0 0 1 164.52 181.80&#10;  L 164.52 361.86&#10;  A 0.91 0.90 90.0 0 1 163.62 362.77&#10;  L 130.40 362.77&#10;  A 1.15 1.14 -90.0 0 1 129.26 361.62&#10;  L 129.26 284.81&#10;  A 0.74 0.74 0.0 0 0 128.56 284.07&#10;  Q 125.42 283.85 123.50 283.84&#10;  Q 102.05 283.80 82.74 283.80&#10;  Q 63.42 283.80 41.98 283.84&#10;  Q 40.06 283.85 36.92 284.07&#10;  A 0.74 0.74 0.0 0 0 36.22 284.81&#10;  L 36.22 361.62&#10;  A 1.15 1.14 90.0 0 1 35.08 362.77&#10;  L 1.86 362.77&#10;  A 0.91 0.90 90.0 0 1 0.96 361.86&#10;  L 0.95 181.80&#10;  A 0.96 0.96 0.0 0 1 1.91 180.84&#10;  L 34.95 180.84&#10;  A 1.26 1.26 0.0 0 1 36.21 182.10&#10;  L 36.22 249.43&#10;  A 1.12 1.11 89.9 0 0 37.33 250.55&#10;  Q 67.42 250.54 82.74 250.54&#10;  Z"/>
<path fill="#ffffff" d="&#10;  M 232.35 181.52&#10;  Q 232.44 182.12 232.45 186.03&#10;  Q 232.49 205.84 232.48 286.25&#10;  C 232.48 289.89 232.47 298.15 233.47 302.84&#10;  Q 236.18 315.52 246.65 323.07&#10;  C 255.17 329.21 263.49 330.73 273.69 330.82&#10;  A 0.73 0.73 0.0 0 1 274.41 331.55&#10;  L 274.41 363.85&#10;  A 1.27 1.27 0.0 0 1 273.12 365.12&#10;  Q 260.76 364.94 247.34 361.66&#10;  C 221.88 355.44 202.03 335.59 198.85 309.24&#10;  Q 197.59 298.76 197.60 287.50&#10;  Q 197.69 211.80 197.55 188.50&#10;  Q 197.52 183.92 197.89 181.34&#10;  A 0.70 0.69 3.8 0 1 198.58 180.74&#10;  L 231.62 180.89&#10;  A 0.75 0.75 0.0 0 1 232.35 181.52&#10;  Z"/>
<rect fill="#ffffff" x="314.70" y="180.84" width="35.64" height="115.70" rx="1.22"/>
<rect fill="#ffffff" x="525.78" y="180.83" width="144.66" height="34.02" rx="1.20"/>
<path fill="#ffffff" d="&#10;  M 831.57 362.63&#10;  A 0.35 0.35 0.0 0 1 831.21 363.02&#10;  Q 813.08 362.74 794.54 362.93&#10;  Q 791.70 362.96 790.90 360.68&#10;  Q 782.46 336.68 745.97 235.26&#10;  Q 742.07 224.41 739.88 218.67&#10;  A 1.15 1.14 69.2 0 0 738.42 218.00&#10;  Q 737.52 218.34 737.10 219.57&#10;  Q 722.21 263.29 691.70 354.69&#10;  Q 690.94 356.97 689.62 361.41&#10;  A 1.96 1.95 -81.6 0 1 687.75 362.80&#10;  L 652.49 362.80&#10;  A 1.13 1.13 0.0 0 1 651.43 361.29&#10;  L 715.70 182.30&#10;  A 2.26 2.25 -80.0 0 1 717.82 180.81&#10;  L 759.50 180.81&#10;  A 2.17 2.17 0.0 0 1 761.53 182.21&#10;  Q 764.72 190.84 766.97 196.55&#10;  Q 810.70 307.74 830.40 357.87&#10;  Q 831.36 360.31 831.57 362.63&#10;  Z"/>
<path fill="#ffffff" d="&#10;  M 886.94 298.60&#10;  A 0.46 0.45 0.0 0 0 886.48 299.05&#10;  L 886.48 361.72&#10;  A 1.09 1.09 0.0 0 1 885.39 362.81&#10;  L 852.42 362.81&#10;  A 1.42 1.42 0.0 0 1 851.00 361.39&#10;  L 851.00 270.60&#10;  A 0.98 0.98 0.0 0 1 851.85 269.63&#10;  Q 854.58 269.27 855.02 269.27&#10;  Q 886.64 269.57 920.73 269.27&#10;  Q 933.19 269.16 943.39 263.98&#10;  C 956.12 257.52 959.71 241.16 955.57 228.53&#10;  C 951.39 215.74 937.24 211.81 925.25 211.59&#10;  Q 888.19 210.92 854.76 211.55&#10;  Q 852.76 211.59 851.54 210.89&#10;  A 0.97 0.96 15.3 0 1 851.06 210.06&#10;  L 851.06 182.19&#10;  A 1.10 1.10 0.0 0 1 851.89 181.12&#10;  Q 853.43 180.73 855.25 180.74&#10;  Q 868.14 180.86 922.33 180.86&#10;  C 937.59 180.86 951.25 182.06 964.72 189.23&#10;  C 977.49 196.03 985.31 207.92 988.30 221.99&#10;  C 989.99 229.92 990.86 238.24 989.72 246.37&#10;  Q 986.97 265.99 973.49 281.19&#10;  C 969.46 285.74 964.61 288.88 959.39 292.13&#10;  A 0.84 0.84 0.0 0 0 959.11 293.27&#10;  Q 967.42 307.25 997.43 357.07&#10;  Q 998.69 359.16 999.77 361.75&#10;  A 0.99 0.99 0.0 0 1 998.83 363.12&#10;  Q 981.57 362.63 964.50 363.07&#10;  C 961.05 363.16 960.44 361.33 958.82 358.20&#10;  Q 949.06 339.31 928.47 300.85&#10;  Q 927.19 298.47 924.82 298.48&#10;  Q 896.31 298.54 886.94 298.60&#10;  Z"/>
<path fill="#ffffff" d="&#10;  M 373.77 303.04&#10;  A 0.91 0.91 0.0 0 1 374.68 302.13&#10;  L 408.28 302.13&#10;  A 0.87 0.86 -3.4 0 1 409.14 302.89&#10;  C 409.91 309.54 411.55 317.48 415.55 322.46&#10;  C 421.62 330.03 430.18 333.97 439.71 335.59&#10;  C 455.33 338.25 483.19 334.22 486.55 314.30&#10;  Q 486.95 311.92 486.36 309.37&#10;  Q 483.75 298.18 472.99 292.48&#10;  Q 465.34 288.43 460.75 287.00&#10;  Q 445.73 282.30 427.06 277.18&#10;  Q 415.45 274.00 404.46 268.81&#10;  C 387.54 260.82 376.88 247.63 376.33 228.44&#10;  A 0.96 0.95 89.1 0 1 377.28 227.45&#10;  L 408.95 227.45&#10;  A 1.31 1.31 0.0 0 1 410.24 228.55&#10;  C 412.12 240.42 420.43 244.98 430.64 249.12&#10;  C 437.26 251.80 448.75 255.14 458.83 257.76&#10;  Q 470.36 260.75 481.09 264.87&#10;  C 496.97 270.97 510.39 277.78 517.65 293.55&#10;  Q 519.61 297.82 520.81 305.27&#10;  Q 521.92 312.20 521.30 317.33&#10;  Q 519.49 332.35 509.74 343.01&#10;  C 497.92 355.93 478.61 363.03 461.24 364.36&#10;  Q 443.30 365.74 427.27 362.99&#10;  C 415.26 360.93 401.87 356.05 392.64 348.10&#10;  C 379.60 336.88 373.81 320.12 373.77 303.04&#10;  Z"/>
<rect fill="#ffffff" x="580.67" y="237.67" width="35.24" height="125.28" rx="1.01"/>
</svg>